<svg width="1437" height="841" viewBox="0 0 1437 841" fill="none" xmlns="http://www.w3.org/2000/svg">
<g clip-path="url(#clip0_760_1312)">
<rect width="1437" height="840.246" fill="#FFF8EB"/>
<path d="M544.524 308.931C553.703 307.827 568.232 309.791 577.402 311.298C581.923 312.179 588.169 312.338 592.481 313.7C608.823 318.861 635.557 327.62 633.683 349.057C633.188 354.72 632.917 357.97 630.503 363.116C643.971 356.099 644.749 354.909 656.804 365.483C657.83 370.9 657.526 380.206 656.94 385.677C652.637 391.19 650.911 397.65 643.573 399.725C636.896 401.614 632.07 400.011 626.348 396.981C622.865 391.448 621.915 390.245 620.29 383.995C614.435 393.095 608.248 397.363 599.802 403.623C604.897 409.287 622.047 414.642 618.845 425.651C618.578 426.566 616.266 429.71 615.591 430.664C602.342 432.356 598.157 432.546 584.475 432.665C584.428 441.011 586.986 450.097 588.748 458.209C589.607 462.083 589.3 466.708 590.146 470.525C591.857 478.248 593.086 485.498 594.005 493.358C605.216 492.268 619.9 484.403 630.982 483.778C633.574 495.675 635.138 511.239 632.116 523.283C631.847 524.357 630.12 527.938 629.574 529.14C623.193 522.886 619.643 517.251 617.507 508.375C612.791 511.42 604.912 515.418 599.812 518.352C593.922 521.74 585.01 527.436 579.022 530.123C576.755 522.514 575.094 516.173 574.269 508.245C573.942 505.107 572.288 501.05 571.778 497.795C571.253 494.445 570.562 491.029 570.022 487.673C568.048 480.389 566.209 475.292 565.799 467.648C565.782 467.479 565.764 467.31 565.744 467.141C565.221 462.708 563.694 460.157 562.598 454.734C561.01 446.686 560.073 437.131 556.373 429.861C555.939 429.009 548.883 427.006 547.651 426.638C545.319 430.057 544.893 431.967 543.056 435.405C539.511 442.039 536.613 448.791 533.303 455.485C523.328 475.338 513.472 495.251 503.735 515.222C499.289 524.696 494.715 534.109 490.014 543.459C488.023 547.456 485.256 553.456 482.981 557.158C479.203 557.473 470.254 552.326 466.82 550.39C461.817 547.57 439.498 532.988 438.151 527.554C438.057 527.177 438.317 526.697 438.556 526.402C442.472 521.551 460.007 525.21 465.192 526.717C466.999 527.241 470.859 529.32 472.346 529.151C474.151 526.313 474.41 523.99 475.795 521.331C478.672 515.808 480.292 509.764 482.677 504.2L520.11 416.741C509.779 410.8 506.684 408.648 498.188 400.759C497.172 396.232 497.32 394.407 498.749 390.106C501.97 389.613 505.429 388.428 508.711 387.884C512.529 387.25 516.526 387.197 520.399 387.068C514.47 378.926 508.534 360.471 507.492 350.234C504.15 317.401 514.756 311.833 544.524 308.931ZM592.123 352.054C601.052 351.876 606.736 351.471 615.184 348.326C602.527 336.633 570.36 331.904 553.485 332.584C552.945 332.605 552.405 332.633 551.865 332.668C547.06 332.97 533.657 333.898 529.774 335.586L529.411 336.009C531.863 344.009 564.486 351.033 572.414 351.578C578.122 351.971 586.182 351.798 592.123 352.054Z" fill="#212F19"/>
<path d="M892.091 332.578C899.629 332.255 905.644 334.108 913.007 335.437C916.738 336.11 917.688 336.977 920.697 339.078C920.998 350.684 920.553 364.44 920.324 376.188C914.707 377.139 906.678 377.416 902.032 375.011C890.815 369.206 894.499 352.415 907.399 351.38C909.129 351.242 912.016 351.17 913.262 350.624C911.35 349.32 904.143 348.873 901.829 349.204C887.097 351.614 887.475 372.669 890.612 383.592C894.609 397.499 899.209 400.321 913.135 398.383C914.818 396.684 916.492 395.317 918.374 393.867C918.739 393.586 919.515 391.344 919.9 390.65L920.312 390.983C920.57 398.18 920.791 405.379 920.964 412.579C921.314 428.126 920.948 430.165 904.622 431.281C907.337 431.408 908.01 431.489 904.492 431.484C908.421 432.215 920.452 434.403 920.507 436.705C920.621 441.248 921.6 466.279 920.176 469.772C919.031 469.517 919.578 468.036 918.947 467.447C911.282 460.288 903.817 461.18 894.817 463.29C884.465 471.348 882.434 488.344 888.089 500.009C890.824 505.644 894.961 507.63 900.633 509.314C900.968 505.828 901.362 502.347 901.812 498.874C902.049 496.868 902.198 494.788 902.371 492.769C898.615 493.566 894.037 493.965 890.171 494.34C890.268 487.874 890.196 481.223 890.205 474.741C900.231 475.374 910.65 476.174 920.663 476.364C921.092 481.493 920.867 488.621 920.863 493.94L920.752 524.801C903.681 532.601 883.884 531.519 867.186 524.467C865.948 523.946 864.634 522.386 863.583 521.678C859.7 519.066 853.366 516.852 853.472 511.236C853.057 494.766 853.37 478.233 853.311 461.752C853.294 456.931 853.036 450.617 853.926 445.987L854.184 445.596C856.635 441.988 861.645 439.567 865.321 437.355C871.654 433.544 878.394 432.576 885.537 431.269C895.646 431.415 901.542 431.479 904.492 431.484C904.187 431.427 903.93 431.379 903.732 431.34C904.034 431.321 904.33 431.301 904.622 431.281C898.25 430.983 880.631 430.425 879.548 430.103C869.331 427.069 864.511 423.558 856.435 417.301L856.421 417.268C855.733 415.721 854.926 413.904 854.858 412.204C854.184 394.909 854.744 377.507 854.587 360.193C854.553 356.201 854.608 352.763 855.405 348.868C858.254 346.822 864.447 342.661 866.113 340.29C868.258 339.602 871.875 338.512 873.782 337.409C879.115 334.322 887.059 335.448 892.091 332.578Z" fill="#212F19"/>
<path d="M665.611 335.427C675.806 335.418 689.066 335.046 699.015 335.521C700.295 339.499 717.041 373.382 718.957 375.546C719.063 375.664 719.157 375.79 719.258 375.91C719.322 375.982 719.381 376.054 719.445 376.125C720.038 372.172 719.614 366.483 720.004 364.623C722.099 354.54 724.311 345.943 725.002 335.466L765.847 335.419C765.283 339.487 766.034 355.398 765.923 360.66C765.436 383.611 766.542 407.624 765.678 430.523C761.294 429.95 735.677 429.529 732.722 430.427C732.705 428.934 732.697 427.257 732.552 425.779C731.213 411.837 731.196 397.631 729.674 383.72C729.055 387.828 728.835 391.314 727.537 395.282C726.219 400.754 725.655 407.747 724.752 413.406C723.76 419.624 722.514 424.768 720.852 430.841C718.457 430.882 703.885 431.553 703.101 429.941C696.67 416.707 691.557 402.774 684.836 389.66C683.553 386.133 683.062 385.023 680.97 381.785C682.601 386.52 683.447 389.118 684.157 394.12C684.349 397.142 686.589 402.922 687.327 406.142C689.118 413.951 691.644 422.189 692.879 430.053C684.115 429.985 674.513 429.846 665.743 430.049L665.777 365.724L665.767 345.882C665.762 343.22 665.887 337.824 665.611 335.427Z" fill="#212F19"/>
<path d="M765.453 432.917L765.542 527.486C761.782 527.013 736.393 526.974 732.179 527.405C730.683 513.46 730.713 496.201 729.801 482.117C728.203 487.366 726.821 492.788 726.168 498.242C724.985 508.154 722.934 517.788 720.92 527.561C716.816 527.041 706.931 527.045 702.732 527.383C697.214 515.66 692.013 503.385 686.621 491.522C685.508 489.136 682.829 482.767 681.542 480.977C681.391 481.923 683.725 491.04 684.036 493.225C685.813 502.59 691.337 517.862 692.48 527.391C687.532 526.975 670.225 526.973 665.472 527.46C666.213 496.745 665.5 464.309 665.68 433.4L697.381 433.347C704.893 441.226 711.564 462.906 718.063 472.795C720.517 468.102 719.449 463.855 720.318 458.749C721.289 453.009 723.031 447.121 723.574 441.342C724.358 438.561 724.532 436.143 724.583 433.297L737.275 433.386C746.029 433.31 756.932 433.72 765.453 432.917Z" fill="#212F19"/>
<path d="M807.464 332.578C817.693 332.125 843.501 338.688 850.153 346.395C855.647 352.757 851.823 386.977 852.955 396.776C853.396 400.637 853.442 415.58 850.466 418.988C840.606 426.962 827.138 431.838 814.518 432.197C814.31 432.235 813.992 432.298 813.772 432.319C800.563 433.613 783.542 428.628 773.182 420.403C771.401 418.993 769.913 417.702 769.65 415.354C768.875 408.479 768.629 351.617 770.401 347.769C771.766 344.817 777.383 343.03 779.545 340.036L779.668 339.863C786.717 339.141 785.975 337.148 791.588 335.716C796.111 334.562 802.928 334.927 807.464 332.578ZM813.662 419.233C817.761 415.123 818.804 412.917 818.49 406.595C817.731 391.455 816.777 376.101 814.798 361.073C814.365 357.781 814.688 353.872 814.179 350.44C812.386 348.404 810.711 345.804 807.778 345.945C806.705 347.195 804.115 350.049 803.988 351.654C802.814 366.607 804.942 382.222 806.018 397.165C806.447 403.108 805.747 408.667 807.413 414.421C808.079 416.664 811.148 419.572 813.662 419.233Z" fill="#212F19"/>
<path d="M812.895 433.205C813.98 433.464 821.649 433.283 823.281 433.286L850.31 433.351C851.06 458.447 849.733 484.251 850.272 509.423C850.454 518.035 841.001 521.625 834.18 524.804C819.19 531.791 801.118 531.64 785.857 525.557C781.453 523.806 771.134 518.073 769.324 513.915C769.057 503.376 769.29 491.721 769.295 481.099L769.345 433.339L801.962 433.371L806.104 488.412C806.494 494.129 804.183 515.003 812.589 515.873C818.965 513.487 814.671 502.538 814.624 498.393C814.535 490.715 814.641 481.623 814.599 474.129C814.561 467.771 811.335 435.774 812.895 433.205Z" fill="#212F19"/>
<path d="M607.009 280.587L611.194 280.864C616.146 290.738 616.267 298.398 615.771 309.57C615.706 311.014 615.354 312.722 614.252 313.609C612.76 313.698 612.917 313.947 612.092 313.242C611.454 311.085 611.676 307.152 611.698 304.77C608.444 303.689 603.879 304.123 599.763 303.352C599.528 303.187 599.299 303.015 599.075 302.837C587.802 293.918 594.024 288.98 601.072 280.815L607.009 280.587Z" fill="#212F19"/>
<path d="M631.617 311.442C632.712 311.479 634.795 311.638 635.87 311.897C642.002 313.368 642.095 321.654 637.398 324.621C633.914 324.941 634.411 322.843 631.441 321.424C626.304 318.992 620.927 322.784 618.763 319.906C619.492 315.524 627.365 311.855 631.617 311.442Z" fill="#212F19"/>
<path d="M729.674 383.72C731.196 397.631 731.213 411.837 732.553 425.779C732.697 427.257 732.705 428.934 732.722 430.427C734.147 431.74 735.728 431.402 737.275 433.386L724.583 433.297C724.532 436.143 724.358 438.561 723.574 441.342C722.883 438.886 722.421 433.843 724.557 432.122C727.559 431.271 730.352 433.582 732.714 431.751C731.993 431.585 731.709 431.5 731.018 431.249C731.361 430.605 730.077 407.407 730.251 403.362C726.067 400.827 729.327 400.375 727.538 395.282C728.835 391.314 729.055 387.828 729.674 383.72Z" fill="#768476" fill-opacity="0.0352941"/>
<path d="M684.036 493.225C683.726 491.04 681.392 481.923 681.543 480.977C682.83 482.767 685.509 489.136 686.621 491.522C685.57 491.472 685.305 491.495 684.317 491.179L684.036 493.225Z" fill="#162311" fill-opacity="0.027451"/>
<path d="M684.158 394.12C683.448 389.118 682.601 386.52 680.971 381.785C683.062 385.023 683.553 386.133 684.836 389.66C683.752 390.985 684.294 392.425 684.158 394.12Z" fill="#162311" fill-opacity="0.105882"/>
</g>
<defs>
<clipPath id="clip0_760_1312">
<rect width="1437" height="840.246" fill="white"/>
</clipPath>
</defs>
</svg>
