<svg width="1920" height="297" viewBox="0 0 1920 297" fill="none" xmlns="http://www.w3.org/2000/svg">
<g clip-path="url(#clip0_609_1464)">
<rect width="1920" height="297" fill="white"/>
<rect x="94" y="39" width="172.462" height="57" rx="5.84615" fill="#ECECEC"/>
<path d="M143.117 76.0771L148.992 60.731H151.053L156.929 76.0771H154.692L153.224 72.2625H146.734L145.266 76.0771H143.117ZM147.414 70.4648H152.544L149.979 63.3618L147.414 70.4648ZM159.558 76.0771V60.731H165.038C166.865 60.731 168.195 61.1183 169.028 61.8929C169.876 62.6529 170.3 63.6321 170.3 64.8306C170.3 65.6198 170.081 66.2995 169.642 66.8695C169.204 67.4248 168.663 67.8268 168.02 68.0752C168.926 68.2798 169.642 68.6964 170.168 69.3248C170.695 69.9387 170.958 70.7425 170.958 71.7364C170.958 72.5695 170.775 73.3148 170.41 73.9725C170.044 74.6156 169.46 75.1271 168.656 75.5071C167.852 75.8871 166.792 76.0771 165.477 76.0771H159.558ZM161.618 74.2795H165.477C166.792 74.2795 167.691 74.0456 168.173 73.5779C168.656 73.0956 168.897 72.4598 168.897 71.6706C168.897 70.8668 168.656 70.231 168.173 69.7633C167.691 69.281 166.785 69.0398 165.455 69.0398H161.618V74.2795ZM161.618 67.3298H165.038C166.266 67.3298 167.107 67.1033 167.56 66.6502C168.013 66.1971 168.239 65.6198 168.239 64.9183C168.239 64.2021 168.013 63.6248 167.56 63.1864C167.107 62.7479 166.266 62.5287 165.038 62.5287H161.618V67.3298ZM180.057 76.2964C179.18 76.2964 178.332 76.1502 177.514 75.8579C176.71 75.551 175.986 75.0833 175.343 74.4548C174.7 73.8264 174.189 73.0225 173.809 72.0433C173.443 71.0641 173.26 69.8875 173.26 68.5137V68.0752C173.26 66.7598 173.443 65.6271 173.809 64.6771C174.189 63.7271 174.7 62.9452 175.343 62.3314C175.986 61.7029 176.71 61.2425 177.514 60.9502C178.332 60.6579 179.18 60.5118 180.057 60.5118C180.934 60.5118 181.774 60.6579 182.578 60.9502C183.396 61.2425 184.127 61.7029 184.77 62.3314C185.413 62.9452 185.917 63.7271 186.283 64.6771C186.663 65.6271 186.853 66.7598 186.853 68.0752V68.5137C186.853 69.8875 186.663 71.0641 186.283 72.0433C185.917 73.0225 185.413 73.8264 184.77 74.4548C184.127 75.0833 183.396 75.551 182.578 75.8579C181.774 76.1502 180.934 76.2964 180.057 76.2964ZM180.057 74.4548C180.86 74.4548 181.606 74.2575 182.293 73.8629C182.994 73.4683 183.564 72.8325 184.003 71.9556C184.441 71.0787 184.66 69.9314 184.66 68.5137V68.0752C184.66 66.7306 184.441 65.6418 184.003 64.8087C183.564 63.961 182.994 63.3398 182.293 62.9452C181.606 62.5506 180.86 62.3533 180.057 62.3533C179.267 62.3533 178.522 62.5506 177.82 62.9452C177.119 63.3398 176.549 63.961 176.11 64.8087C175.672 65.6418 175.453 66.7306 175.453 68.0752V68.5137C175.453 69.9314 175.672 71.0787 176.11 71.9556C176.549 72.8325 177.119 73.4683 177.82 73.8629C178.522 74.2575 179.267 74.4548 180.057 74.4548ZM196.175 76.2964C194.962 76.2964 193.903 76.0625 192.996 75.5948C192.09 75.1125 191.389 74.3891 190.892 73.4245C190.395 72.4452 190.146 71.2102 190.146 69.7195V60.731H192.207V69.7195C192.207 71.3856 192.558 72.5914 193.259 73.3368C193.961 74.0821 194.933 74.4548 196.175 74.4548C197.418 74.4548 198.389 74.0821 199.091 73.3368C199.793 72.5914 200.143 71.3856 200.143 69.7195V60.731H202.204V69.7195C202.204 71.2102 201.956 72.4452 201.459 73.4245C200.962 74.3891 200.26 75.1125 199.354 75.5948C198.463 76.0625 197.403 76.2964 196.175 76.2964ZM209.953 76.0771V62.5287H204.626V60.731H217.341V62.5287H212.014V76.0771H209.953Z" fill="#222222"/>
<rect x="324" y="39" width="192.923" height="57" rx="5.84615" fill="#ECECEC"/>
<path d="M364.277 76.0771V60.731H369.648C370.934 60.731 372.001 60.9356 372.849 61.3448C373.711 61.7395 374.362 62.2875 374.8 62.9891C375.239 63.676 375.458 64.4579 375.458 65.3348C375.458 66.3579 375.151 67.2568 374.537 68.0314C373.938 68.7914 373.046 69.3248 371.863 69.6318L375.896 76.0771H373.463L369.802 69.8948H366.338V76.0771H364.277ZM366.338 68.141H369.429C370.847 68.141 371.863 67.8852 372.476 67.3737C373.09 66.8475 373.397 66.1679 373.397 65.3348C373.397 64.5018 373.09 63.8295 372.476 63.3179C371.863 62.7918 370.847 62.5287 369.429 62.5287H366.338V68.141ZM379.178 76.0771V60.731H389.043V62.5287H381.239V67.286H388.386V69.0837H381.239V74.2795H389.043V76.0771H379.178ZM397.382 76.2964C396.154 76.2964 395.131 76.1064 394.313 75.7264C393.509 75.3464 392.888 74.8348 392.449 74.1918C392.011 73.5341 391.718 72.8106 391.572 72.0214H393.633C393.794 72.6937 394.159 73.271 394.729 73.7533C395.299 74.221 396.183 74.4548 397.382 74.4548C398.61 74.4548 399.538 74.221 400.166 73.7533C400.809 73.2856 401.131 72.7083 401.131 72.0214C401.131 71.4514 400.999 70.9983 400.736 70.6621C400.473 70.3114 400.035 70.0191 399.421 69.7852C398.821 69.5368 398.003 69.2956 396.965 69.0618C395.825 68.8133 394.89 68.521 394.159 68.1848C393.428 67.8487 392.888 67.3956 392.537 66.8256C392.186 66.2556 392.011 65.5029 392.011 64.5675C392.011 63.8075 392.223 63.1279 392.646 62.5287C393.085 61.9148 393.706 61.4252 394.51 61.0598C395.314 60.6945 396.271 60.5118 397.382 60.5118C398.478 60.5118 399.391 60.6945 400.122 61.0598C400.853 61.4252 401.423 61.9148 401.832 62.5287C402.241 63.1279 402.512 63.8075 402.643 64.5675H400.583C400.436 63.9537 400.122 63.4348 399.64 63.011C399.172 62.5725 398.42 62.3533 397.382 62.3533C396.33 62.3533 395.511 62.5725 394.926 63.011C394.356 63.4348 394.071 63.9537 394.071 64.5675C394.071 65.3714 394.371 65.9633 394.97 66.3433C395.57 66.7087 396.527 67.0375 397.842 67.3298C398.792 67.5345 399.603 67.7683 400.276 68.0314C400.963 68.2945 401.518 68.6087 401.942 68.9741C402.38 69.3248 402.695 69.7487 402.885 70.2456C403.089 70.7425 403.191 71.3345 403.191 72.0214C403.191 72.8106 402.958 73.5341 402.49 74.1918C402.037 74.8348 401.379 75.3464 400.517 75.7264C399.655 76.1064 398.61 76.2964 397.382 76.2964ZM406.582 76.0771V60.731H416.447V62.5287H408.643V67.286H415.79V69.0837H408.643V74.2795H416.447V76.0771H406.582ZM418.209 76.0771L424.084 60.731H426.145L432.02 76.0771H429.784L428.315 72.2625H421.826L420.357 76.0771H418.209ZM422.506 70.4648H427.636L425.071 63.3618L422.506 70.4648ZM434.649 76.0771V60.731H440.021C441.307 60.731 442.374 60.9356 443.221 61.3448C444.084 61.7395 444.734 62.2875 445.172 62.9891C445.611 63.676 445.83 64.4579 445.83 65.3348C445.83 66.3579 445.523 67.2568 444.909 68.0314C444.31 68.7914 443.419 69.3248 442.235 69.6318L446.269 76.0771H443.835L440.174 69.8948H436.71V76.0771H434.649ZM436.71 68.141H439.801C441.219 68.141 442.235 67.8852 442.849 67.3737C443.462 66.8475 443.769 66.1679 443.769 65.3348C443.769 64.5018 443.462 63.8295 442.849 63.3179C442.235 62.7918 441.219 62.5287 439.801 62.5287H436.71V68.141ZM455.141 76.2964C454.001 76.2964 452.941 76.026 451.962 75.4852C450.983 74.9445 450.186 74.1041 449.572 72.9641C448.973 71.8095 448.673 70.326 448.673 68.5137V68.0752C448.673 66.7598 448.849 65.6271 449.199 64.6771C449.55 63.7271 450.025 62.9452 450.624 62.3314C451.224 61.7175 451.911 61.2645 452.685 60.9721C453.474 60.6652 454.293 60.5118 455.141 60.5118C455.974 60.5118 456.734 60.6214 457.421 60.8406C458.122 61.0598 458.736 61.3741 459.262 61.7833C459.788 62.1925 460.212 62.6968 460.534 63.296C460.87 63.8952 461.082 64.5748 461.169 65.3348H458.977C458.773 64.341 458.341 63.5956 457.684 63.0987C457.026 62.6018 456.178 62.3533 455.141 62.3533C454.424 62.3533 453.738 62.536 453.08 62.9014C452.422 63.2668 451.889 63.8733 451.479 64.721C451.07 65.5541 450.866 66.6721 450.866 68.0752V68.5137C450.866 69.6245 450.99 70.5598 451.238 71.3198C451.501 72.0798 451.845 72.6937 452.269 73.1614C452.693 73.6145 453.153 73.9433 453.65 74.1479C454.161 74.3525 454.658 74.4548 455.141 74.4548C456.281 74.4548 457.172 74.1771 457.815 73.6218C458.458 73.0664 458.846 72.3502 458.977 71.4733H461.169C461.053 72.321 460.819 73.0518 460.468 73.6656C460.117 74.2795 459.671 74.7837 459.131 75.1783C458.604 75.5583 457.998 75.8433 457.311 76.0333C456.639 76.2087 455.915 76.2964 455.141 76.2964ZM464.451 76.0771V60.731H466.512V67.286H474.667V60.731H476.728V76.0771H474.667V69.0837H466.512V76.0771H464.451Z" fill="#222222"/>
<rect x="575" y="39" width="190" height="57" rx="5.84615" fill="#ECECEC"/>
<path d="M617.096 76.2964C615.883 76.2964 614.824 76.0625 613.917 75.5948C613.011 75.1125 612.31 74.3891 611.813 73.4245C611.316 72.4452 611.067 71.2102 611.067 69.7195V60.731H613.128V69.7195C613.128 71.3856 613.479 72.5914 614.181 73.3368C614.882 74.0821 615.854 74.4548 617.096 74.4548C618.339 74.4548 619.311 74.0821 620.012 73.3368C620.714 72.5914 621.064 71.3856 621.064 69.7195V60.731H623.125V69.7195C623.125 71.2102 622.877 72.4452 622.38 73.4245C621.883 74.3891 621.181 75.1125 620.275 75.5948C619.384 76.0625 618.324 76.2964 617.096 76.2964ZM632.124 76.2964C630.896 76.2964 629.873 76.1064 629.055 75.7264C628.251 75.3464 627.63 74.8348 627.191 74.1918C626.753 73.5341 626.46 72.8106 626.314 72.0214H628.375C628.536 72.6937 628.901 73.271 629.471 73.7533C630.041 74.221 630.925 74.4548 632.124 74.4548C633.352 74.4548 634.28 74.221 634.908 73.7533C635.551 73.2856 635.873 72.7083 635.873 72.0214C635.873 71.4514 635.741 70.9983 635.478 70.6621C635.215 70.3114 634.777 70.0191 634.163 69.7852C633.564 69.5368 632.745 69.2956 631.707 69.0618C630.567 68.8133 629.632 68.521 628.901 68.1848C628.17 67.8487 627.63 67.3956 627.279 66.8256C626.928 66.2556 626.753 65.5029 626.753 64.5675C626.753 63.8075 626.965 63.1279 627.389 62.5287C627.827 61.9148 628.448 61.4252 629.252 61.0598C630.056 60.6945 631.013 60.5118 632.124 60.5118C633.22 60.5118 634.134 60.6945 634.864 61.0598C635.595 61.4252 636.165 61.9148 636.574 62.5287C636.984 63.1279 637.254 63.8075 637.385 64.5675H635.325C635.179 63.9537 634.864 63.4348 634.382 63.011C633.914 62.5725 633.162 62.3533 632.124 62.3533C631.072 62.3533 630.253 62.5725 629.669 63.011C629.099 63.4348 628.814 63.9537 628.814 64.5675C628.814 65.3714 629.113 65.9633 629.712 66.3433C630.312 66.7087 631.269 67.0375 632.584 67.3298C633.534 67.5345 634.345 67.7683 635.018 68.0314C635.705 68.2945 636.26 68.6087 636.684 68.9741C637.122 69.3248 637.437 69.7487 637.627 70.2456C637.831 70.7425 637.934 71.3345 637.934 72.0214C637.934 72.8106 637.7 73.5341 637.232 74.1918C636.779 74.8348 636.121 75.3464 635.259 75.7264C634.397 76.1064 633.352 76.2964 632.124 76.2964ZM641.324 76.0771V60.731H651.189V62.5287H643.385V67.286H650.532V69.0837H643.385V74.2795H651.189V76.0771H641.324ZM654.705 76.0771V60.731H660.076C661.362 60.731 662.429 60.9356 663.277 61.3448C664.139 61.7395 664.789 62.2875 665.228 62.9891C665.666 63.676 665.885 64.4579 665.885 65.3348C665.885 66.3579 665.579 67.2568 664.965 68.0314C664.365 68.7914 663.474 69.3248 662.29 69.6318L666.324 76.0771H663.89L660.229 69.8948H656.765V76.0771H654.705ZM656.765 68.141H659.857C661.274 68.141 662.29 67.8852 662.904 67.3737C663.518 66.8475 663.825 66.1679 663.825 65.3348C663.825 64.5018 663.518 63.8295 662.904 63.3179C662.29 62.7918 661.274 62.5287 659.857 62.5287H656.765V68.141ZM669.606 76.0771V60.731H679.471V62.5287H671.666V67.5052H678.813V69.3029H671.666V76.0771H669.606ZM682.644 76.0771V60.731H684.705V74.2795H692.509V76.0771H682.644ZM700.188 76.2964C699.311 76.2964 698.464 76.1502 697.645 75.8579C696.841 75.551 696.118 75.0833 695.475 74.4548C694.832 73.8264 694.32 73.0225 693.94 72.0433C693.575 71.0641 693.392 69.8875 693.392 68.5137V68.0752C693.392 66.7598 693.575 65.6271 693.94 64.6771C694.32 63.7271 694.832 62.9452 695.475 62.3314C696.118 61.7029 696.841 61.2425 697.645 60.9502C698.464 60.6579 699.311 60.5118 700.188 60.5118C701.065 60.5118 701.906 60.6579 702.709 60.9502C703.528 61.2425 704.259 61.7029 704.902 62.3314C705.545 62.9452 706.049 63.7271 706.414 64.6771C706.794 65.6271 706.984 66.7598 706.984 68.0752V68.5137C706.984 69.8875 706.794 71.0641 706.414 72.0433C706.049 73.0225 705.545 73.8264 704.902 74.4548C704.259 75.0833 703.528 75.551 702.709 75.8579C701.906 76.1502 701.065 76.2964 700.188 76.2964ZM700.188 74.4548C700.992 74.4548 701.737 74.2575 702.424 73.8629C703.126 73.4683 703.696 72.8325 704.134 71.9556C704.573 71.0787 704.792 69.9314 704.792 68.5137V68.0752C704.792 66.7306 704.573 65.6418 704.134 64.8087C703.696 63.961 703.126 63.3398 702.424 62.9452C701.737 62.5506 700.992 62.3533 700.188 62.3533C699.399 62.3533 698.654 62.5506 697.952 62.9452C697.251 63.3398 696.681 63.961 696.242 64.8087C695.804 65.6418 695.584 66.7306 695.584 68.0752V68.5137C695.584 69.9314 695.804 71.0787 696.242 71.9556C696.681 72.8325 697.251 73.4683 697.952 73.8629C698.654 74.2575 699.399 74.4548 700.188 74.4548ZM712.87 76.0771L708.748 60.731H710.941L714.098 72.7887L717.693 60.731H719.535L723.196 72.7887L726.375 60.731H728.479L724.358 76.0771H722.297L718.57 64.0195L714.931 76.0771H712.87Z" fill="#222222"/>
<rect x="823" y="39" width="207.538" height="57" rx="5.84615" fill="#ECECEC"/>
<path d="M858.915 76.0771L854.793 60.731H856.985L860.142 72.7887L863.738 60.731H865.579L869.24 72.7887L872.419 60.731H874.524L870.402 76.0771H868.342L864.615 64.0195L860.975 76.0771H858.915ZM877.592 76.0771V60.731H879.653V76.0771H877.592ZM884.267 76.0771V60.731H889.638C890.924 60.731 891.991 60.9356 892.839 61.3448C893.701 61.7395 894.351 62.2875 894.79 62.9891C895.228 63.676 895.448 64.4579 895.448 65.3348C895.448 66.3579 895.141 67.2568 894.527 68.0314C893.928 68.7914 893.036 69.3248 891.852 69.6318L895.886 76.0771H893.453L889.791 69.8948H886.328V76.0771H884.267ZM886.328 68.141H889.419C890.836 68.141 891.852 67.8852 892.466 67.3737C893.08 66.8475 893.387 66.1679 893.387 65.3348C893.387 64.5018 893.08 63.8295 892.466 63.3179C891.852 62.7918 890.836 62.5287 889.419 62.5287H886.328V68.141ZM899.168 76.0771V60.731H909.033V62.5287H901.228V67.286H908.375V69.0837H901.228V74.2795H909.033V76.0771H899.168ZM912.548 76.0771V60.731H922.414V62.5287H914.609V67.5052H921.756V69.3029H914.609V76.0771H912.548ZM925.587 76.0771V60.731H930.958C932.244 60.731 933.311 60.9356 934.159 61.3448C935.021 61.7395 935.671 62.2875 936.11 62.9891C936.548 63.676 936.767 64.4579 936.767 65.3348C936.767 66.3579 936.461 67.2568 935.847 68.0314C935.247 68.7914 934.356 69.3248 933.172 69.6318L937.206 76.0771H934.772L931.111 69.8948H927.647V76.0771H925.587ZM927.647 68.141H930.739C932.156 68.141 933.172 67.8852 933.786 67.3737C934.4 66.8475 934.707 66.1679 934.707 65.3348C934.707 64.5018 934.4 63.8295 933.786 63.3179C933.172 62.7918 932.156 62.5287 930.739 62.5287H927.647V68.141ZM938.734 76.0771L944.609 60.731H946.67L952.545 76.0771H950.309L948.84 72.2625H942.351L940.882 76.0771H938.734ZM943.031 70.4648H948.161L945.596 63.3618L943.031 70.4648ZM955.174 76.0771V60.731H957.323L962.453 70.4868L967.583 60.731H969.644V76.0771H967.583V64.4579L963.176 72.7887H961.642L957.235 64.4579V76.0771H955.174ZM974.036 76.0771V60.731H983.901V62.5287H976.097V67.286H983.244V69.0837H976.097V74.2795H983.901V76.0771H974.036ZM992.24 76.2964C991.012 76.2964 989.989 76.1064 989.17 75.7264C988.367 75.3464 987.745 74.8348 987.307 74.1918C986.869 73.5341 986.576 72.8106 986.43 72.0214H988.491C988.652 72.6937 989.017 73.271 989.587 73.7533C990.157 74.221 991.041 74.4548 992.24 74.4548C993.467 74.4548 994.395 74.221 995.024 73.7533C995.667 73.2856 995.989 72.7083 995.989 72.0214C995.989 71.4514 995.857 70.9983 995.594 70.6621C995.331 70.3114 994.892 70.0191 994.279 69.7852C993.679 69.5368 992.861 69.2956 991.823 69.0618C990.683 68.8133 989.748 68.521 989.017 68.1848C988.286 67.8487 987.745 67.3956 987.395 66.8256C987.044 66.2556 986.869 65.5029 986.869 64.5675C986.869 63.8075 987.08 63.1279 987.504 62.5287C987.943 61.9148 988.564 61.4252 989.368 61.0598C990.172 60.6945 991.129 60.5118 992.24 60.5118C993.336 60.5118 994.249 60.6945 994.98 61.0598C995.711 61.4252 996.281 61.9148 996.69 62.5287C997.099 63.1279 997.37 63.8075 997.501 64.5675H995.44C995.294 63.9537 994.98 63.4348 994.498 63.011C994.03 62.5725 993.277 62.3533 992.24 62.3533C991.187 62.3533 990.369 62.5725 989.784 63.011C989.214 63.4348 988.929 63.9537 988.929 64.5675C988.929 65.3714 989.229 65.9633 989.828 66.3433C990.427 66.7087 991.385 67.0375 992.7 67.3298C993.65 67.5345 994.461 67.7683 995.134 68.0314C995.82 68.2945 996.376 68.6087 996.8 68.9741C997.238 69.3248 997.552 69.7487 997.742 70.2456C997.947 70.7425 998.049 71.3345 998.049 72.0214C998.049 72.8106 997.815 73.5341 997.348 74.1918C996.895 74.8348 996.237 75.3464 995.375 75.7264C994.512 76.1064 993.467 76.2964 992.24 76.2964Z" fill="#222222"/>
<rect x="1088" y="39" width="242.615" height="57" rx="5.84615" fill="#ECECEC"/>
<path d="M1135.54 76.0771V60.731H1145.4V62.5287H1137.6V67.5052H1144.75V69.3029H1137.6V76.0771H1135.54ZM1148.8 76.0771V60.731H1150.86V76.0771H1148.8ZM1155.47 76.0771V60.731H1157.49L1165.73 72.6791V60.731H1167.75V76.0771H1165.73L1157.49 64.1291V76.0771H1155.47ZM1170.37 76.0771L1176.25 60.731H1178.31L1184.19 76.0771H1181.95L1180.48 72.2625H1173.99L1172.52 76.0771H1170.37ZM1174.67 70.4648H1179.8L1177.24 63.3618L1174.67 70.4648ZM1186.81 76.0771V60.731H1188.87V74.2795H1196.68V76.0771H1186.81ZM1204.8 76.0771V60.731H1210.17C1211.46 60.731 1212.52 60.9356 1213.37 61.3448C1214.23 61.7395 1214.88 62.2875 1215.32 62.9891C1215.76 63.676 1215.98 64.4579 1215.98 65.3348C1215.98 66.3579 1215.67 67.2568 1215.06 68.0314C1214.46 68.7914 1213.57 69.3248 1212.38 69.6318L1216.42 76.0771H1213.98L1210.32 69.8948H1206.86V76.0771H1204.8ZM1206.86 68.141H1209.95C1211.37 68.141 1212.38 67.8852 1213 67.3737C1213.61 66.8475 1213.92 66.1679 1213.92 65.3348C1213.92 64.5018 1213.61 63.8295 1213 63.3179C1212.38 62.7918 1211.37 62.5287 1209.95 62.5287H1206.86V68.141ZM1219.7 76.0771V60.731H1229.56V62.5287H1221.76V67.286H1228.91V69.0837H1221.76V74.2795H1229.56V76.0771H1219.7ZM1237.9 76.2964C1236.67 76.2964 1235.65 76.1064 1234.83 75.7264C1234.03 75.3464 1233.41 74.8348 1232.97 74.1918C1232.53 73.5341 1232.24 72.8106 1232.09 72.0214H1234.15C1234.31 72.6937 1234.68 73.271 1235.25 73.7533C1235.82 74.221 1236.7 74.4548 1237.9 74.4548C1239.13 74.4548 1240.06 74.221 1240.69 73.7533C1241.33 73.2856 1241.65 72.7083 1241.65 72.0214C1241.65 71.4514 1241.52 70.9983 1241.26 70.6621C1240.99 70.3114 1240.56 70.0191 1239.94 69.7852C1239.34 69.5368 1238.52 69.2956 1237.49 69.0618C1236.35 68.8133 1235.41 68.521 1234.68 68.1848C1233.95 67.8487 1233.41 67.3956 1233.06 66.8256C1232.71 66.2556 1232.53 65.5029 1232.53 64.5675C1232.53 63.8075 1232.74 63.1279 1233.17 62.5287C1233.61 61.9148 1234.23 61.4252 1235.03 61.0598C1235.83 60.6945 1236.79 60.5118 1237.9 60.5118C1239 60.5118 1239.91 60.6945 1240.64 61.0598C1241.37 61.4252 1241.94 61.9148 1242.35 62.5287C1242.76 63.1279 1243.03 63.8075 1243.16 64.5675H1241.1C1240.96 63.9537 1240.64 63.4348 1240.16 63.011C1239.69 62.5725 1238.94 62.3533 1237.9 62.3533C1236.85 62.3533 1236.03 62.5725 1235.45 63.011C1234.88 63.4348 1234.59 63.9537 1234.59 64.5675C1234.59 65.3714 1234.89 65.9633 1235.49 66.3433C1236.09 66.7087 1237.05 67.0375 1238.36 67.3298C1239.31 67.5345 1240.12 67.7683 1240.8 68.0314C1241.48 68.2945 1242.04 68.6087 1242.46 68.9741C1242.9 69.3248 1243.22 69.7487 1243.41 70.2456C1243.61 70.7425 1243.71 71.3345 1243.71 72.0214C1243.71 72.8106 1243.48 73.5341 1243.01 74.1918C1242.56 74.8348 1241.9 75.3464 1241.04 75.7264C1240.18 76.1064 1239.13 76.2964 1237.9 76.2964ZM1252.91 76.2964C1251.7 76.2964 1250.64 76.0625 1249.73 75.5948C1248.83 75.1125 1248.13 74.3891 1247.63 73.4245C1247.13 72.4452 1246.88 71.2102 1246.88 69.7195V60.731H1248.94V69.7195C1248.94 71.3856 1249.29 72.5914 1250 73.3368C1250.7 74.0821 1251.67 74.4548 1252.91 74.4548C1254.15 74.4548 1255.13 74.0821 1255.83 73.3368C1256.53 72.5914 1256.88 71.3856 1256.88 69.7195V60.731H1258.94V69.7195C1258.94 71.2102 1258.69 72.4452 1258.2 73.4245C1257.7 74.3891 1257 75.1125 1256.09 75.5948C1255.2 76.0625 1254.14 76.2964 1252.91 76.2964ZM1263.12 76.0771V60.731H1265.18V74.2795H1272.98V76.0771H1263.12ZM1277.44 76.0771V62.5287H1272.11V60.731H1284.83V62.5287H1279.5V76.0771H1277.44Z" fill="#222222"/>
<rect x="1389" y="39" width="171" height="57" rx="5.84615" fill="#ECECEC"/>
<path d="M1450.11 76.2964C1448.9 76.2964 1447.84 76.0625 1446.93 75.5948C1446.03 75.1125 1445.32 74.3891 1444.83 73.4245C1444.33 72.4452 1444.08 71.2102 1444.08 69.7195V60.731H1446.14V69.7195C1446.14 71.3856 1446.49 72.5914 1447.19 73.3368C1447.9 74.0821 1448.87 74.4548 1450.11 74.4548C1451.35 74.4548 1452.32 74.0821 1453.03 73.3368C1453.73 72.5914 1454.08 71.3856 1454.08 69.7195V60.731H1456.14V69.7195C1456.14 71.2102 1455.89 72.4452 1455.39 73.4245C1454.9 74.3891 1454.2 75.1125 1453.29 75.5948C1452.4 76.0625 1451.34 76.2964 1450.11 76.2964ZM1460.53 76.0771V60.731H1462.59V76.0771H1460.53ZM1472.69 76.0771V60.731H1474.75V68.8206L1481.96 60.731H1484.53L1478.83 67.0448L1484.97 76.0771H1482.42L1477.49 68.4479L1474.75 71.4514V76.0771H1472.69ZM1488.04 76.0771V60.731H1490.11V76.0771H1488.04ZM1498.29 76.0771V62.5287H1492.97V60.731H1505.68V62.5287H1500.35V76.0771H1498.29Z" fill="#222222"/>
<rect x="1618" y="39" width="207.538" height="57" rx="5.84615" fill="#354E00"/>
<path d="M1658.66 76.0771V60.731H1663.92C1665.28 60.731 1666.39 60.9356 1667.26 61.3448C1668.13 61.7395 1668.78 62.2948 1669.21 63.011C1669.63 63.7125 1669.84 64.5237 1669.84 65.4445C1669.84 66.3506 1669.63 67.1618 1669.21 67.8779C1668.78 68.5941 1668.13 69.1568 1667.26 69.566C1666.39 69.9606 1665.28 70.1579 1663.92 70.1579H1660.72V76.0771H1658.66ZM1660.72 68.3602H1663.81C1665.28 68.3602 1666.3 68.0971 1666.88 67.571C1667.48 67.0448 1667.78 66.336 1667.78 65.4445C1667.78 64.5529 1667.48 63.8441 1666.88 63.3179C1666.3 62.7918 1665.28 62.5287 1663.81 62.5287H1660.72V68.3602ZM1673.03 76.0771V60.731H1678.4C1679.68 60.731 1680.75 60.9356 1681.6 61.3448C1682.46 61.7395 1683.11 62.2875 1683.55 62.9891C1683.99 63.676 1684.21 64.4579 1684.21 65.3348C1684.21 66.3579 1683.9 67.2568 1683.29 68.0314C1682.69 68.7914 1681.8 69.3248 1680.61 69.6318L1684.65 76.0771H1682.21L1678.55 69.8948H1675.09V76.0771H1673.03ZM1675.09 68.141H1678.18C1679.6 68.141 1680.61 67.8852 1681.23 67.3737C1681.84 66.8475 1682.15 66.1679 1682.15 65.3348C1682.15 64.5018 1681.84 63.8295 1681.23 63.3179C1680.61 62.7918 1679.6 62.5287 1678.18 62.5287H1675.09V68.141ZM1693.85 76.2964C1692.97 76.2964 1692.12 76.1502 1691.3 75.8579C1690.5 75.551 1689.78 75.0833 1689.13 74.4548C1688.49 73.8264 1687.98 73.0225 1687.6 72.0433C1687.23 71.0641 1687.05 69.8875 1687.05 68.5137V68.0752C1687.05 66.7598 1687.23 65.6271 1687.6 64.6771C1687.98 63.7271 1688.49 62.9452 1689.13 62.3314C1689.78 61.7029 1690.5 61.2425 1691.3 60.9502C1692.12 60.6579 1692.97 60.5118 1693.85 60.5118C1694.72 60.5118 1695.56 60.6579 1696.37 60.9502C1697.19 61.2425 1697.92 61.7029 1698.56 62.3314C1699.2 62.9452 1699.71 63.7271 1700.07 64.6771C1700.45 65.6271 1700.64 66.7598 1700.64 68.0752V68.5137C1700.64 69.8875 1700.45 71.0641 1700.07 72.0433C1699.71 73.0225 1699.2 73.8264 1698.56 74.4548C1697.92 75.0833 1697.19 75.551 1696.37 75.8579C1695.56 76.1502 1694.72 76.2964 1693.85 76.2964ZM1693.85 74.4548C1694.65 74.4548 1695.4 74.2575 1696.08 73.8629C1696.79 73.4683 1697.36 72.8325 1697.79 71.9556C1698.23 71.0787 1698.45 69.9314 1698.45 68.5137V68.0752C1698.45 66.7306 1698.23 65.6418 1697.79 64.8087C1697.36 63.961 1696.79 63.3398 1696.08 62.9452C1695.4 62.5506 1694.65 62.3533 1693.85 62.3533C1693.06 62.3533 1692.31 62.5506 1691.61 62.9452C1690.91 63.3398 1690.34 63.961 1689.9 64.8087C1689.46 65.6418 1689.24 66.7306 1689.24 68.0752V68.5137C1689.24 69.9314 1689.46 71.0787 1689.9 71.9556C1690.34 72.8325 1690.91 73.4683 1691.61 73.8629C1692.31 74.2575 1693.06 74.4548 1693.85 74.4548ZM1707.3 76.0771V62.5287H1701.97V60.731H1714.69V62.5287H1709.36V76.0771H1707.3ZM1722.81 76.2964C1721.94 76.2964 1721.09 76.1502 1720.27 75.8579C1719.47 75.551 1718.74 75.0833 1718.1 74.4548C1717.46 73.8264 1716.95 73.0225 1716.57 72.0433C1716.2 71.0641 1716.02 69.8875 1716.02 68.5137V68.0752C1716.02 66.7598 1716.2 65.6271 1716.57 64.6771C1716.95 63.7271 1717.46 62.9452 1718.1 62.3314C1718.74 61.7029 1719.47 61.2425 1720.27 60.9502C1721.09 60.6579 1721.94 60.5118 1722.81 60.5118C1723.69 60.5118 1724.53 60.6579 1725.34 60.9502C1726.15 61.2425 1726.88 61.7029 1727.53 62.3314C1728.17 62.9452 1728.67 63.7271 1729.04 64.6771C1729.42 65.6271 1729.61 66.7598 1729.61 68.0752V68.5137C1729.61 69.8875 1729.42 71.0641 1729.04 72.0433C1728.67 73.0225 1728.17 73.8264 1727.53 74.4548C1726.88 75.0833 1726.15 75.551 1725.34 75.8579C1724.53 76.1502 1723.69 76.2964 1722.81 76.2964ZM1722.81 74.4548C1723.62 74.4548 1724.36 74.2575 1725.05 73.8629C1725.75 73.4683 1726.32 72.8325 1726.76 71.9556C1727.2 71.0787 1727.42 69.9314 1727.42 68.5137V68.0752C1727.42 66.7306 1727.2 65.6418 1726.76 64.8087C1726.32 63.961 1725.75 63.3398 1725.05 62.9452C1724.36 62.5506 1723.62 62.3533 1722.81 62.3533C1722.02 62.3533 1721.28 62.5506 1720.58 62.9452C1719.88 63.3398 1719.31 63.961 1718.87 64.8087C1718.43 65.6418 1718.21 66.7306 1718.21 68.0752V68.5137C1718.21 69.9314 1718.43 71.0787 1718.87 71.9556C1719.31 72.8325 1719.88 73.4683 1720.58 73.8629C1721.28 74.2575 1722.02 74.4548 1722.81 74.4548ZM1736.27 76.0771V62.5287H1730.94V60.731H1743.66V62.5287H1738.33V76.0771H1736.27ZM1750.97 76.0771V70.0045L1744.98 60.731H1747.35L1751.97 67.8779L1756.29 60.731H1758.57L1753.03 70.0045V76.0771H1750.97ZM1760.98 76.0771V60.731H1766.24C1767.6 60.731 1768.71 60.9356 1769.57 61.3448C1770.45 61.7395 1771.1 62.2948 1771.52 63.011C1771.95 63.7125 1772.16 64.5237 1772.16 65.4445C1772.16 66.3506 1771.95 67.1618 1771.52 67.8779C1771.1 68.5941 1770.45 69.1568 1769.57 69.566C1768.71 69.9606 1767.6 70.1579 1766.24 70.1579H1763.04V76.0771H1760.98ZM1763.04 68.3602H1766.13C1767.59 68.3602 1768.61 68.0971 1769.2 67.571C1769.8 67.0448 1770.1 66.336 1770.1 65.4445C1770.1 64.5529 1769.8 63.8441 1769.2 63.3179C1768.61 62.7918 1767.59 62.5287 1766.13 62.5287H1763.04V68.3602ZM1775.34 76.0771V60.731H1785.21V62.5287H1777.4V67.286H1784.55V69.0837H1777.4V74.2795H1785.21V76.0771H1775.34Z" fill="#ECECEC"/>
<path d="M100.1 256V213.3H114.74C118.522 213.3 121.613 213.869 124.012 215.008C126.452 216.106 128.262 217.651 129.441 219.644C130.62 221.596 131.21 223.853 131.21 226.415C131.21 228.936 130.62 231.193 129.441 233.186C128.262 235.179 126.452 236.744 124.012 237.883C121.613 238.981 118.522 239.53 114.74 239.53H105.834V256H100.1ZM105.834 234.528H114.435C118.502 234.528 121.348 233.796 122.975 232.332C124.642 230.868 125.476 228.896 125.476 226.415C125.476 223.934 124.642 221.962 122.975 220.498C121.348 219.034 118.502 218.302 114.435 218.302H105.834V234.528ZM138.852 256V223.67H143.854V229.77C144.342 228.469 145.013 227.33 145.867 226.354C146.721 225.337 147.758 224.544 148.978 223.975C150.238 223.365 151.641 223.06 153.187 223.06C154 223.06 154.651 223.101 155.139 223.182C155.667 223.263 156.135 223.365 156.542 223.487V228.489C156.013 228.286 155.484 228.143 154.956 228.062C154.468 227.981 153.776 227.94 152.882 227.94C151.255 227.94 149.791 228.326 148.49 229.099C147.188 229.872 146.151 230.949 145.379 232.332C144.606 233.674 144.22 235.26 144.22 237.09V256H138.852ZM175.445 256.61C172.72 256.61 170.158 256.02 167.759 254.841C165.4 253.621 163.489 251.791 162.025 249.351C160.601 246.911 159.89 243.841 159.89 240.14V238.92C159.89 235.423 160.601 232.495 162.025 230.136C163.489 227.777 165.4 226.008 167.759 224.829C170.158 223.65 172.72 223.06 175.445 223.06C178.21 223.06 180.772 223.65 183.131 224.829C185.489 226.008 187.38 227.777 188.804 230.136C190.268 232.495 191 235.423 191 238.92V240.14C191 243.841 190.268 246.911 188.804 249.351C187.38 251.791 185.489 253.621 183.131 254.841C180.772 256.02 178.21 256.61 175.445 256.61ZM175.445 251.73C177.112 251.73 178.698 251.364 180.203 250.632C181.748 249.859 183.009 248.619 183.985 246.911C185.001 245.203 185.51 242.946 185.51 240.14V238.92C185.51 236.317 185.001 234.223 183.985 232.637C183.009 231.01 181.748 229.831 180.203 229.099C178.698 228.326 177.112 227.94 175.445 227.94C173.818 227.94 172.232 228.326 170.687 229.099C169.141 229.831 167.86 231.01 166.844 232.637C165.868 234.223 165.38 236.317 165.38 238.92V240.14C165.38 242.946 165.868 245.203 166.844 246.911C167.86 248.619 169.141 249.859 170.687 250.632C172.232 251.364 173.818 251.73 175.445 251.73ZM210.496 256.305C208.218 256.305 206.348 255.959 204.884 255.268C203.46 254.577 202.403 253.54 201.712 252.157C201.061 250.734 200.736 248.965 200.736 246.85V228.428H195.856V223.67H200.736V216.35H206.104V223.67H214.766V228.428H206.104V246.24C206.104 248.07 206.49 249.392 207.263 250.205C208.035 251.018 209.52 251.425 211.716 251.425C212.936 251.425 214.156 251.364 215.376 251.242V256C214.603 256.081 213.83 256.142 213.058 256.183C212.285 256.264 211.431 256.305 210.496 256.305ZM236.445 256.61C233.72 256.61 231.158 256.02 228.759 254.841C226.4 253.621 224.489 251.791 223.025 249.351C221.601 246.911 220.89 243.841 220.89 240.14V238.92C220.89 235.423 221.601 232.495 223.025 230.136C224.489 227.777 226.4 226.008 228.759 224.829C231.158 223.65 233.72 223.06 236.445 223.06C239.21 223.06 241.772 223.65 244.131 224.829C246.489 226.008 248.38 227.777 249.804 230.136C251.268 232.495 252 235.423 252 238.92V240.14C252 243.841 251.268 246.911 249.804 249.351C248.38 251.791 246.489 253.621 244.131 254.841C241.772 256.02 239.21 256.61 236.445 256.61ZM236.445 251.73C238.112 251.73 239.698 251.364 241.203 250.632C242.748 249.859 244.009 248.619 244.985 246.911C246.001 245.203 246.51 242.946 246.51 240.14V238.92C246.51 236.317 246.001 234.223 244.985 232.637C244.009 231.01 242.748 229.831 241.203 229.099C239.698 228.326 238.112 227.94 236.445 227.94C234.818 227.94 233.232 228.326 231.687 229.099C230.141 229.831 228.86 231.01 227.844 232.637C226.868 234.223 226.38 236.317 226.38 238.92V240.14C226.38 242.946 226.868 245.203 227.844 246.911C228.86 248.619 230.141 249.859 231.687 250.632C233.232 251.364 234.818 251.73 236.445 251.73ZM271.496 256.305C269.218 256.305 267.348 255.959 265.884 255.268C264.46 254.577 263.403 253.54 262.712 252.157C262.061 250.734 261.736 248.965 261.736 246.85V228.428H256.856V223.67H261.736V216.35H267.104V223.67H275.766V228.428H267.104V246.24C267.104 248.07 267.49 249.392 268.263 250.205C269.035 251.018 270.52 251.425 272.716 251.425C273.936 251.425 275.156 251.364 276.376 251.242V256C275.603 256.081 274.83 256.142 274.058 256.183C273.285 256.264 272.431 256.305 271.496 256.305ZM289.486 268.81C288.876 268.81 288.266 268.749 287.656 268.627V263.747C288.266 263.869 288.876 263.93 289.486 263.93C290.299 263.93 290.97 263.727 291.499 263.32C292.068 262.954 292.638 262.202 293.207 261.063C293.776 259.924 294.468 258.237 295.281 256L281.556 223.67H287.534L298.026 249.9L307.542 223.67H313.276L301.076 256C299.937 259.05 298.839 261.51 297.782 263.381C296.765 265.252 295.606 266.614 294.305 267.468C293.044 268.363 291.438 268.81 289.486 268.81ZM319.35 268.2V223.67H324.352V229.77C325.45 227.615 326.975 225.968 328.927 224.829C330.919 223.65 333.217 223.06 335.82 223.06C339.886 223.06 343.14 224.402 345.58 227.086C348.02 229.729 349.24 233.674 349.24 238.92V240.14C349.24 243.8 348.67 246.85 347.532 249.29C346.434 251.73 344.868 253.56 342.835 254.78C340.842 256 338.504 256.61 335.82 256.61C333.054 256.61 330.736 256 328.866 254.78C327.036 253.56 325.653 252.035 324.718 250.205V268.2H319.35ZM334.6 251.852C337.243 251.852 339.439 250.856 341.188 248.863C342.977 246.87 343.872 243.963 343.872 240.14V238.92C343.872 235.382 342.977 232.657 341.188 230.746C339.439 228.794 337.243 227.818 334.6 227.818C332.648 227.818 330.919 228.225 329.415 229.038C327.951 229.851 326.792 230.97 325.938 232.393C325.124 233.776 324.718 235.341 324.718 237.09V241.97C324.718 243.922 325.124 245.65 325.938 247.155C326.792 248.619 327.951 249.778 329.415 250.632C330.919 251.445 332.648 251.852 334.6 251.852ZM370.299 256.61C367.574 256.61 365.012 256.02 362.613 254.841C360.254 253.662 358.343 251.852 356.879 249.412C355.456 246.972 354.744 243.881 354.744 240.14V238.92C354.744 235.341 355.435 232.393 356.818 230.075C358.201 227.716 360.031 225.968 362.308 224.829C364.585 223.65 367.046 223.06 369.689 223.06C374.447 223.06 378.127 224.361 380.73 226.964C383.333 229.567 384.634 233.247 384.634 238.005V241.421H360.112C360.112 243.942 360.62 245.955 361.637 247.46C362.694 248.965 363.996 250.063 365.541 250.754C367.127 251.405 368.713 251.73 370.299 251.73C372.739 251.73 374.61 251.323 375.911 250.51C377.253 249.697 378.209 248.578 378.778 247.155H384.024C383.373 250.246 381.767 252.604 379.205 254.231C376.684 255.817 373.715 256.61 370.299 256.61ZM369.994 227.94C368.327 227.94 366.741 228.265 365.236 228.916C363.731 229.526 362.491 230.502 361.515 231.844C360.58 233.186 360.112 234.914 360.112 237.029H379.571C379.53 234.792 379.063 233.023 378.168 231.722C377.314 230.38 376.175 229.424 374.752 228.855C373.329 228.245 371.743 227.94 369.994 227.94Z" fill="black"/>
</g>
<defs>
<clipPath id="clip0_609_1464">
<rect width="1920" height="297" fill="white"/>
</clipPath>
</defs>
</svg>
