<svg width="422" height="150" viewBox="0 0 422 150" fill="none" xmlns="http://www.w3.org/2000/svg">
<path d="M299.725 33.6143C303.321 32.2175 307.322 31.9692 311.71 32.8447H311.711C319.174 34.3521 326.314 37.207 333.128 41.4043L333.653 41.7158C339.118 44.8839 345.409 46.2803 352.545 45.8896C358.444 45.5703 362.646 46.6957 364.934 49.46L365.146 49.7236C367.288 52.498 367.614 56.7927 366.331 62.4473C365.963 64.1931 365.253 66.7028 364.208 69.9668L364.209 69.9678C363.207 73.2404 362.667 75.0355 362.58 75.3828L362.577 75.3926L362.575 75.4014C361.403 79.406 360.918 82.7209 361.094 85.3613L361.128 85.7617C361.319 87.7387 361.85 89.3559 362.701 90.6348C363.55 91.9094 364.732 92.8726 366.267 93.5215L366.578 93.6475L366.583 93.6494C368.142 94.2671 369.694 94.3346 371.256 93.8574C372.828 93.3774 374.437 92.3374 376.081 90.6973C379.372 87.3689 380.886 82.8892 380.574 77.1953V77.1924C380.484 75.3086 380.214 72.6273 379.76 69.1416V69.1406C379.305 65.605 379.009 63.0582 378.872 61.5068L378.871 61.5039C378.135 52.4117 380.668 45.4192 386.542 40.6279L387.097 40.1855C392.88 35.7213 400.131 34.6632 408.777 36.9307C412.495 37.9041 415.449 39.7197 417.611 42.3896L418.014 42.8896C419.969 45.4266 421.049 48.5111 421.267 52.1211V52.1221C421.544 56.8798 420.501 62.0958 418.166 67.7617L418.167 67.7627C417.525 69.3634 415.019 74.9083 410.661 84.374C406.994 92.5649 405.667 100.173 406.645 107.211L406.747 107.891L406.748 107.898C406.887 108.868 407.037 110.615 407.199 113.127L407.365 115.895L407.366 115.902C407.734 125.353 404.994 133.212 399.125 139.436C393.301 145.614 385.61 148.829 376.096 149.104C365.711 149.425 357.151 146.258 350.459 139.582L350.457 139.581C343.815 132.908 340.215 123.926 339.619 112.684C339.528 110.954 339.437 108.137 339.346 104.239V104.233C339.3 100.338 339.21 97.357 339.074 95.2852L339.073 95.2734C339.028 94.1992 338.939 93.3174 338.809 92.623C338.678 91.9301 338.459 91.1637 338.148 90.3223L338.146 90.3145V90.3135C337.856 89.4887 337.414 88.9019 336.835 88.5166L336.819 88.5068L336.805 88.4951C336.272 88.0777 335.567 87.8497 334.649 87.8496C334.034 87.8496 333.495 87.9722 333.024 88.207L333.009 88.2148C332.55 88.4227 332.192 88.6641 331.923 88.9326C331.671 89.1836 331.406 89.6141 331.145 90.2666C330.877 90.9333 330.678 91.4613 330.546 91.8545C330.454 92.2223 330.296 92.8305 330.073 93.6768C329.894 94.5251 329.783 95.0585 329.738 95.2803L329.735 95.2959L329.731 95.3105C329.559 95.956 329.45 96.6487 329.406 97.3896C329.362 98.1481 329.339 99.0451 329.339 100.081C329.339 101.06 329.317 101.814 329.271 102.334C329.318 104.486 329.632 108.107 330.221 113.21C330.858 118.338 331.157 122.309 331.111 125.107V125.108C331.02 130.045 330.172 133.967 328.525 136.83L328.524 136.829C326.916 139.706 324.408 141.705 321.036 142.826H321.034C317.465 143.998 313.782 143.829 310.008 142.341C306.235 140.854 303.052 138.323 300.459 134.766H300.458C294.958 127.204 293.29 117.996 295.4 107.194V107.193C297.101 98.5731 301.69 89.6644 309.128 80.4688C311.091 78.0379 312.502 75.9008 313.377 74.0557C314.254 72.2049 314.572 70.6896 314.408 69.4834L314.407 69.4756C314.263 68.2646 313.579 66.8358 312.275 65.1797C310.976 63.5292 309.092 61.6902 306.608 59.6631L306.607 59.6621C305.848 59.0384 304.678 58.1618 303.09 57.0303L303.083 57.0254C301.489 55.8438 300.074 54.7516 298.841 53.749L298.834 53.7432C297.636 52.7316 296.55 51.6725 295.579 50.5654V50.5645C292.618 47.1945 291.422 43.9095 292.202 40.749H292.203C292.983 37.5447 295.555 35.1858 299.725 33.6143Z" fill="black" stroke="#FFFCF8" stroke-width="0.965227"/>
<path d="M264.388 0.576172C268.149 0.208752 271.88 0.93085 275.572 2.72949L275.575 2.73145C280.271 5.0546 283.08 8.54705 283.927 13.2012C284.404 15.8265 284.738 17.5204 284.93 18.3086L285.004 18.5908V18.5928C285.452 20.1814 285.931 21.4013 286.436 22.2695C286.939 23.1366 287.433 23.5944 287.888 23.7686C288.362 23.9192 289.058 23.8587 290.033 23.458C291.001 23.0606 292.176 22.3565 293.564 21.3271C294.106 20.9216 294.874 20.3341 295.871 19.5645C296.867 18.7503 297.688 18.1115 298.333 17.6514C299.021 17.1475 299.821 16.5999 300.73 16.0088C301.652 15.4099 302.555 14.9004 303.438 14.4824C307.915 12.3606 311.901 12.0233 315.336 13.5967H315.335C318.708 15.0773 321.006 18.133 322.28 22.6445L322.4 23.0859L322.401 23.0898C324.426 31.0934 323.411 38.8945 319.368 46.4697C317.744 49.5076 315.658 51.5901 313.093 52.6514C310.529 53.7121 307.55 53.7264 304.19 52.7539L304.183 52.751C302.986 52.3829 299.75 51.1985 294.499 49.208H294.498C289.392 47.2661 285.367 46.2217 282.403 46.0449L282.394 46.0439C277.935 45.6911 274.143 46.8785 270.984 49.5967L270.985 49.5977C270.364 50.1327 269.99 50.6368 269.812 51.1025C269.641 51.5547 269.644 51.9956 269.826 52.4502C270.076 53.075 270.655 53.5028 271.765 53.623L271.994 53.6426L272.008 53.6436V53.6445C272.705 53.7109 273.608 53.7527 274.722 53.7695L275.905 53.7773C277.626 53.7323 278.972 53.7323 279.939 53.7783C283.74 53.9571 286.722 54.9616 288.82 56.8516L289.021 57.0371L289.023 57.04C290.757 58.7261 291.598 60.4788 291.341 62.2783L291.34 62.2773C291.129 64.0296 289.869 65.4926 287.773 66.7031L287.774 66.7041C287.206 67.0355 286.392 67.4292 285.344 67.8848L285.336 67.8887L285.327 67.8916C284.278 68.3018 283.644 68.5654 283.396 68.6895L283.384 68.6953C280.796 69.8991 278.996 71.2585 277.93 72.751L277.927 72.7549C276.798 74.303 276.177 75.6889 276.01 76.918C275.855 78.0552 276.087 79.0812 276.709 80.0176L276.839 80.2041L276.842 80.208C277.466 81.081 278.187 81.5875 279.001 81.7832C279.931 81.9501 280.699 81.9212 281.322 81.7295C281.88 81.5325 282.531 81.2611 283.275 80.9102L284.052 80.5322C286.384 79.3443 289.194 77.0785 292.488 73.6963H292.489C296.269 69.828 299.77 66.9422 302.993 65.0557L302.994 65.0547C307.279 62.5683 311.422 61.5775 315.406 62.1396C318.715 62.6055 321.225 63.9214 322.861 66.1309L323.164 66.5518C324.611 68.6897 325.091 71.3326 324.655 74.4346C324.515 75.5096 324.235 76.5402 323.815 77.5244C323.587 78.1635 322.951 79.8675 321.909 82.6289L321.908 82.6318C320.866 85.3496 320.163 87.1841 319.801 88.1348L319.798 88.1416C319.436 89.0459 318.802 90.6527 317.896 92.9629L317.895 92.9658C316.989 95.2281 316.215 97.0247 315.574 98.3516C314.982 99.6715 314.233 101.263 313.325 103.123C312.677 104.486 312.028 105.774 311.379 106.986L310.729 108.175C307.721 113.548 304.572 116.996 301.246 118.373L301.242 118.375C297.958 119.707 293.269 119.417 287.259 117.643H287.258C276.142 114.346 263.98 112.087 250.772 110.866L250.771 110.865C243.037 110.138 236.552 108.726 231.328 106.62H231.327C225.895 104.421 221.774 101.445 219 97.6758C216.224 93.9029 214.822 89.3673 214.776 84.0938C214.73 78.3862 216.206 73.2842 219.209 68.8047C222.167 64.2799 226.281 60.9798 231.535 58.9072L231.539 58.9062C232.736 58.4461 234.496 57.8748 236.812 57.1943C237.97 56.8537 238.87 56.5879 239.512 56.3965L240.67 56.0449C242.042 55.5803 242.659 55.0217 242.825 54.4766C242.988 53.9426 242.786 53.1835 241.884 52.1279L241.877 52.1201L241.871 52.1123C241.388 51.4974 240.607 50.6285 239.522 49.499L239.516 49.4912L239.51 49.4844C238.466 48.305 237.687 47.3906 237.18 46.7451V46.7441C232.224 40.6423 229.996 34.2054 230.552 27.4492C231.108 20.6906 234.376 14.6702 240.297 9.39453C246.868 3.51637 254.909 0.581785 264.388 0.576172Z" fill="black" stroke="#FFFCF8" stroke-width="0.965227"/>
<path d="M218.897 32.8213C228.228 26.7083 237.74 25.8631 247.374 30.3213H247.373C252.121 32.5149 255.34 35.8475 256.983 40.3193H256.982C258.667 44.7787 258.608 49.7538 256.853 55.2197L256.854 55.2207C255.421 59.7626 252.726 64.6966 248.789 70.0205C246.92 72.58 244.073 76.4169 240.248 81.5303C237.901 84.6674 236.702 87.7712 236.604 90.8467C236.505 93.9203 237.503 97.0177 239.644 100.147L240.006 100.682C240.889 102.005 242.049 103.868 243.483 106.265L243.772 106.744C246.699 111.692 247.811 116.484 247.049 121.101C246.263 125.862 243.496 130.366 238.819 134.616C231.107 141.699 220.963 145.221 208.437 145.221C201.142 145.586 194.242 143.638 187.749 139.391C182.615 136.098 179.036 131.818 177.038 126.553L177.036 126.549C175.085 121.284 174.928 115.655 176.545 109.679C177.839 104.904 180.49 99.6701 184.472 93.9795C186.84 90.5087 188.313 88.3055 188.897 87.3584C189.717 85.9949 189.978 84.7531 189.756 83.6113C189.533 82.4634 188.806 81.3379 187.495 80.2422V80.2412C187.06 79.8926 186.555 79.5411 185.98 79.1865L185.961 79.1748L185.943 79.1611C185.407 78.758 184.948 78.4523 184.563 78.2383L184.547 78.2285L184.53 78.2178C184.15 77.9633 183.582 77.6552 182.816 77.2939L182.801 77.2871L182.785 77.2783C182.057 76.8674 181.553 76.6051 181.261 76.4795L181.248 76.4736L181.235 76.4668C180.973 76.335 180.39 76.0652 179.477 75.6533L179.468 75.6494C178.633 75.2528 178.11 75.0015 177.907 74.9004C177.493 74.7158 176.396 74.2126 174.622 73.3916C172.846 72.5697 171.588 71.9726 170.852 71.6035L170.841 71.5986L170.83 71.5928C170.1 71.181 169.097 70.6097 167.821 69.8789L167.815 69.875C166.567 69.1331 165.473 68.3643 164.538 67.5674V67.5664C161.281 64.9045 159.382 61.8129 158.907 58.291C158.433 54.7707 159.412 51.2955 161.788 47.8838C165.277 42.7999 170.636 39.0931 177.817 36.7393L178.493 36.5244C185.451 34.3776 191.738 34.2984 197.329 36.333H197.328C200.812 37.5906 203.509 39.4425 205.387 41.9053C207.265 44.3691 208.298 47.4114 208.508 51.0059V51.0078C208.689 54.2808 209.006 57.9655 209.46 62.0625C209.681 63.612 210.122 65.0705 210.782 66.4395C211.306 67.5112 211.89 68.1972 212.509 68.5654C213.111 68.924 213.793 69.0097 214.593 68.7891L214.596 68.7881C215.414 68.568 215.929 68.1431 216.213 67.5283C216.507 66.8904 216.582 65.9829 216.364 64.7549C216.186 63.8182 215.85 62.4882 215.351 60.7578C214.85 59.0227 214.507 57.8077 214.323 57.1172L214.32 57.1064C213.093 52.0001 212.381 48.874 212.195 47.7568L212.194 47.748C211.728 44.5692 212.045 41.7164 213.171 39.209C214.297 36.7016 216.216 34.5747 218.897 32.8213Z" fill="black" stroke="#FFFCF8" stroke-width="0.965227"/>
<path d="M160.146 8.38379C166.408 4.75525 172.846 4.33557 179.412 7.13477L180.069 7.42578L180.074 7.42773C183.141 8.8776 185.433 11.0606 186.931 13.9707L187.207 14.5127C188.533 17.2384 188.972 20.2242 188.534 23.4551L188.533 23.4561C187.991 27.3852 187.029 30.908 185.644 34.0195L185.642 34.0234C182.416 41.104 180.618 45.0562 180.246 45.8828L180.241 45.8945C176.649 53.375 175.902 60.7475 177.976 68.0342L177.979 68.0459C179.186 72.7148 179.732 76.9228 179.606 80.665V80.666C179.48 84.3819 178.551 87.8697 176.821 91.123C175.1 94.3594 172.875 97.2385 170.148 99.7588C167.428 102.273 164.089 104.654 160.136 106.903H160.135C151.831 111.625 142.998 113.78 133.646 113.363C128.991 113.445 124.84 113.007 121.197 112.043C112.098 109.703 105.488 105.403 101.437 99.1064L101.435 99.1045C97.4252 92.808 96.2663 84.9768 97.8936 75.6602V75.6592C98.9278 69.7774 99.8187 65.2739 100.566 62.1543V62.1523C101.522 58.2226 101.527 54.6665 100.604 51.4707C99.6806 48.2767 97.8223 45.4122 95.0068 42.877L95.001 42.8711C93.8423 41.7938 92.9809 40.9318 92.4258 40.291V40.292C89.0105 36.4501 87.6804 32.5692 88.5957 28.6836C89.5105 24.7584 92.4278 21.8432 97.1943 19.9004L97.1973 19.8984C101.529 18.1721 105.639 17.7188 109.513 18.5713H109.512C112.44 19.1906 114.928 19.644 116.98 19.9316H116.979C119.068 20.2187 121.595 20.424 124.562 20.5479H124.562C127.504 20.6293 130.039 20.3828 132.173 19.8184L132.188 19.8145L132.203 19.8115C135.677 19.1328 138.428 19.6624 140.32 21.5508L140.497 21.7246C142.289 23.5564 143.073 26.3058 142.95 29.8652C142.949 30.3447 142.906 30.842 142.82 31.3564C142.778 31.8072 142.715 32.2235 142.632 32.6045C142.584 32.9668 142.477 33.4601 142.313 34.0723L142.312 34.0801C142.146 34.6596 142.05 35.0508 142.014 35.2695L142.013 35.2764L142.011 35.2842C141.961 35.5316 141.803 36.0223 141.559 36.7168L141.556 36.7256C141.306 37.3927 141.165 37.7752 141.127 37.8887C141.082 38.0223 140.913 38.4872 140.626 39.2686C140.482 39.6612 140.374 39.9589 140.303 40.1621C140.267 40.2642 140.242 40.3393 140.226 40.3896C140.224 40.3942 140.223 40.3985 140.222 40.4023V40.4307L140.191 40.5117C137.998 46.4382 136.685 50.2831 136.237 52.0742L136.236 52.0791C135.72 54.0685 135.787 55.8464 136.405 57.4336C137.066 59.0243 138.123 60.1726 139.583 60.9033H139.582C140.975 61.5805 142.377 61.7497 143.803 61.4238C145.24 61.0954 146.735 60.2564 148.286 58.8643L148.287 58.8633C151.57 55.9368 153.385 51.9835 153.709 46.958L153.764 46.0195C154.007 41.3441 153.762 36.8718 153.032 32.6016C152.659 30.4403 152.348 28.2991 152.099 26.1787C151.637 22.2264 152.01 18.7796 153.25 15.8584C154.492 12.9321 156.59 10.5648 159.52 8.75781L160.146 8.38379Z" fill="black" stroke="#FFFCF8" stroke-width="0.965227"/>
<path d="M81.208 24.6133C91.4794 24.9337 99.922 27.0169 106.507 30.8945C111.252 33.666 114.28 37.0297 115.496 41.0068C116.712 44.9834 116.088 49.4828 113.717 54.4697L113.716 54.4688C113.293 55.3632 111.527 58.3749 108.447 63.4609V63.4619C106.318 66.9599 105.109 69.6294 104.763 71.4961C104.471 73.2626 104.907 74.8506 106.092 76.293C107.307 77.7727 109.675 79.582 113.256 81.7178H113.255C113.893 82.0833 114.822 82.6283 116.041 83.3525C117.312 84.0808 118.427 84.7427 119.385 85.3369C120.394 85.9346 121.314 86.5347 122.145 87.1357H122.146C126.973 90.5931 130.014 94.4803 131.188 98.8096C132.324 103.002 131.753 107.709 129.542 112.903L129.323 113.407C126.835 119.043 122.788 124.178 117.2 128.816C111.615 133.453 105.387 136.965 98.5195 139.352L98.5166 139.353C91.6472 141.694 85.168 142.482 79.0869 141.696V141.695C70.8229 140.636 64.1753 137.547 59.1816 132.401L59.1807 132.399C54.1895 127.21 51.2016 120.366 50.1924 111.903L50.1914 111.896C50.0538 110.562 49.9176 108.571 49.7812 105.928L49.7803 105.92C49.6896 103.239 49.5766 101.25 49.4424 99.9463L49.3789 99.4346C49.0371 96.9162 48.3306 95.0192 47.2949 93.7012L47.29 93.6953L47.2852 93.6885C46.2303 92.25 44.969 91.6184 43.4766 91.6992H43.4697C41.9512 91.7609 40.7088 92.4507 39.7197 93.8223C38.7162 95.2139 37.9713 97.313 37.5225 100.168C37.3885 101.063 37.3005 101.959 37.2559 102.854C37.2567 103.74 37.301 104.761 37.3896 105.92C37.525 107.05 37.6373 107.905 37.7266 108.488L37.9297 109.643C38.0202 110.142 38.1333 110.756 38.2695 111.484C38.5342 112.9 38.6934 113.791 38.7451 114.143H38.7461C38.9273 115.051 39.2213 116.504 39.6289 118.502L39.9492 119.969C40.2488 121.393 40.4852 122.692 40.6572 123.864L40.7383 124.434C40.9148 125.758 41.0029 127.05 41.0029 128.308C41.0029 134.752 38.917 139.985 34.7207 143.959C30.5678 147.935 25.3841 149.611 19.2178 149.007H19.2158C12.759 148.35 7.70562 144.633 4.05762 137.966L4.05566 137.962C0.495553 131.286 -0.391472 123.427 1.35059 114.418L1.56934 113.354C2.72978 108.01 4.85466 102.355 7.93555 96.3916L7.93945 96.3848C8.25523 95.7968 9.07104 94.2298 10.3887 91.6787L10.3916 91.6729C11.7512 89.1283 12.7691 87.1771 13.4473 85.8174C15.7107 81.097 16.5594 77.5492 16.1328 75.1113L16.1309 75.1035C15.7466 72.6632 13.8179 69.5672 10.1963 65.7998V65.7988C7.20318 62.7068 5.24344 60.4936 4.35352 59.1787V59.1777C2.83625 56.9309 2.21846 54.7999 2.62891 52.8164C3.03902 50.8352 4.45059 49.1185 6.7334 47.6455C8.68887 46.3384 10.8963 45.3619 13.3506 44.7119L13.3516 44.7109C16.1332 43.9794 22.0698 42.6114 31.1504 40.6084L31.542 40.5254C35.5602 39.7193 38.8339 40.4615 41.2646 42.8496L41.499 43.084C43.8678 45.5292 44.5295 48.8013 43.5791 52.7988L43.5801 52.7998C43.161 54.6206 41.6908 58.6442 39.1973 64.8262L39.1963 64.8281C38.6516 66.1607 38.5098 67.2823 38.71 68.2158C38.8954 69.0806 39.3853 69.8341 40.2207 70.4775L40.3916 70.6055L40.3936 70.6064C41.3695 71.3084 42.3594 71.6499 43.3701 71.6602C44.3843 71.6704 45.4606 71.347 46.6064 70.6533L46.6123 70.6504C49.626 68.8805 51.31 65.9238 51.6201 61.6797C51.7988 58.7232 51.5096 54.549 50.7393 49.1416L50.624 48.2588C50.1199 43.8859 50.703 40.0665 52.4072 36.8252C54.2256 33.3671 57.2944 30.6154 61.5664 28.5547L62.0547 28.3242C67.146 25.9755 73.5296 24.7464 81.1846 24.6133H81.208Z" fill="black" stroke="#FFFCF8" stroke-width="0.965227"/>
<path d="M105.156 37.083C105.636 37.6062 106.712 38.8973 107.35 40.0432C107.541 40.6716 107.678 41.2694 107.774 42.0977C107.813 42.6638 107.832 43.5258 107.852 44.4139" stroke="#FFFCF8" stroke-width="4.82613" stroke-linecap="round"/>
<path d="M111.898 87.0059C112.53 87.398 114.186 88.132 115.358 88.7798C116.717 89.5313 118.357 90.7403 120.718 93.0933C121.304 93.7388 121.718 94.2705 121.989 94.6597C122.259 95.0489 122.373 95.2795 122.723 95.8641" stroke="#FFFCF8" stroke-width="4.82613" stroke-linecap="round"/>
<path d="M180.078 14.3467C180.472 14.9888 181.446 16.7621 181.952 18.62C182.025 20.4114 181.98 21.7629 181.882 22.2886C181.827 22.5484 181.764 22.7942 181.698 23.0474" stroke="#FFFCF8" stroke-width="4.82613" stroke-linecap="round"/>
<path d="M237.617 34.3601C238.209 34.3161 240.131 34.5817 241.642 35.2308C243.727 36.1266 245.193 37.7152 246.725 39.512C247.512 40.8027 247.938 42.0161 248.243 43.3631C248.365 43.9583 248.422 44.3741 248.481 44.8604" stroke="#FFFCF8" stroke-width="4.82613" stroke-linecap="round"/>
<path d="M398.555 41.2556C399.068 41.1527 401.546 41.0632 403.995 41.3468C406.387 41.6238 408.235 42.9866 409.851 44.065C410.921 45.0763 411.927 46.277 412.527 47.2557C412.755 47.6685 412.829 47.9109 413.169 48.6732" stroke="#FFFCF8" stroke-width="4.82613" stroke-linecap="round"/>
<path d="M401.217 116.25C401.236 116.729 400.686 120.769 399.414 125.211C398.281 129.168 395.359 131.99 393.793 133.613C392.635 134.621 391.103 135.644 389.229 136.585C388.786 136.787 388.487 136.898 388.18 137.012" stroke="#FFFCF8" stroke-width="4.82613" stroke-linecap="round"/>
<path d="M309.789 18.7832C310.219 18.745 310.999 18.821 311.819 18.9781C312.639 19.1351 313.254 19.9295 313.912 20.7116C314.488 21.4133 315.156 22.3151 315.591 23.5007C315.672 23.7758 315.722 23.9749 315.773 24.2553" stroke="#FFFCF8" stroke-width="4.82613" stroke-linecap="round"/>
</svg>
