<svg xmlns="http://www.w3.org/2000/svg" width="113" height="113" viewBox="0 0 113 113" fill="none"><metadata><rdf:RDF xmlns:rdf="http://www.w3.org/1999/02/22-rdf-syntax-ns#" xmlns:dc="http://purl.org/dc/elements/1.1/"><rdf:Description><dc:creator>RealFaviconGenerator</dc:creator><dc:source>https://realfavicongenerator.net</dc:source></rdf:Description></rdf:RDF></metadata><rect width="113" height="113" rx="56.5" fill="#FA3701"></rect><path d="M87.5946 44.6206C73.8603 44.2221 68.5717 51.3114 67.5059 50.567C65.4863 49.1483 69.8748 34.1508 69.4583 29.124C69.1449 25.3976 66.5118 19.2322 61.1112 19.0177C55.7151 18.8031 52.7193 20.4977 51.2997 26.558C49.3025 35.0923 57.9228 47.3004 56.2077 49.4242C54.4926 51.5523 53.9955 49.4242 53.9955 49.4242C53.9955 49.4242 45.7066 33.3189 37.1848 29.3998C28.869 25.5771 25.2283 31.0944 25.5597 35.9286C25.8552 40.2243 31.6767 44.0995 31.6767 44.0995C31.6767 44.0995 40.9061 48.6141 44.0855 51.5523C44.811 52.2266 46.2036 53.9124 42.769 54.9765C39.3343 56.0405 36.1996 54.7006 33.2441 54.8626C25.6 55.2874 23.8759 56.0975 22.4967 58.0942C20.8846 60.4193 23.343 67.2766 27.7584 67.9159C32.1693 68.5552 36.5937 65.7878 41.4927 64.5179C46.4007 63.2393 46.1454 64.2946 46.1454 64.2946C40.7493 70.6745 35.1114 81.1092 35.6085 85.3567C36.0966 89.6085 40.5837 93.8998 47.9411 92.8357C55.3031 91.7717 54.2508 83.9642 54.2508 79.0731C54.2508 74.182 56.8212 68.4545 57.7974 68.31C59.6961 68.0253 61.6396 81.788 67.9134 86.3551C73.202 90.204 77.9443 92.2095 82.7896 86.0792C86.8244 80.9691 83.2598 73.8711 73.0005 67.2853C65.7774 62.6525 67.797 60.2836 67.797 60.2836C67.797 60.2836 67.9627 59.7056 70.2554 59.7231C76.1799 59.7844 85.1764 60.4588 92.2876 54.9327C99.3988 49.4066 90.6218 44.6863 87.608 44.6031L87.5991 44.6118L87.5946 44.6206ZM61.0933 61.9476C59.9872 63.0379 58.4781 64.3428 56.763 64.3428C54.8643 64.3428 53.2253 63.9793 52.1013 62.6744C51.237 61.6629 50.9862 60.126 50.9862 58.7072C50.9862 57.6695 51.752 55.5764 52.2491 54.7313C53.288 52.9403 54.4792 52.6032 56.763 52.6032C58.3661 52.6032 59.6827 53.4833 60.7709 54.4554C61.9576 55.5282 62.8084 56.0274 62.8084 57.722C62.8084 59.3203 62.1635 60.8879 61.0843 61.9563L61.0933 61.9476Z" fill="#FFFCF8"></path><style>@media (prefers-color-scheme: light) { :root { filter: none; } }
@media (prefers-color-scheme: dark) { :root { filter: none; } }
</style></svg>