<svg width="923" height="101" viewBox="0 0 923 101" fill="none" xmlns="http://www.w3.org/2000/svg">
<rect y="0.000610352" width="922.697" height="100.616" rx="1.9758" fill="#8BB5FF"/>
<rect x="920.705" width="100.616" height="920.015" rx="1.9758" transform="rotate(90 920.705 0)" fill="#8BB5FF"/>
<path d="M43.9675 69.106L37.3009 22.7768H44.5735L49.9606 59.9479L55.3477 22.7768H62.6203L55.9538 69.106H43.9675ZM69.9219 22.7768H94.7026V29.6453H86.0159V62.2374H94.7026V69.106H69.9219V62.2374H78.6086V29.6453H69.9219V22.7768ZM102.274 35.0998C102.274 27.4232 106.044 21.9014 114.664 21.9014C124.765 21.9014 127.054 28.972 127.054 35.5712V37.1873H120.253V35.5712C120.253 33.349 120.051 28.7699 114.664 28.7699C109.546 28.7699 109.142 32.9449 109.142 34.4937V34.7631C109.142 38.6688 111.566 40.6216 115.203 42.3051C122.475 45.672 127.054 47.8269 127.054 56.7829C127.054 64.2576 123.822 69.9814 114.664 69.9814C104.563 69.9814 102.274 62.9108 102.274 56.3116V52.1365H109.075V56.3116C109.075 58.5337 109.277 63.1128 114.664 63.1128C119.782 63.1128 120.186 58.9378 120.186 57.389V57.1196C120.186 53.7527 118.974 51.7999 114.125 49.645C106.853 46.4127 102.274 43.4498 102.274 35.0998ZM147.015 69.9814C138.598 69.9814 134.625 64.3922 134.625 56.3116V22.7768H141.83V56.3116C141.83 58.2644 141.965 62.9108 147.015 62.9108C152.066 62.9108 152.201 58.2644 152.201 56.3116V22.7768H159.406V56.3116C159.406 64.2576 155.433 69.9814 147.015 69.9814ZM173.374 69.106H166.303L173.441 22.7768H185.293L192.431 69.106H185.36L184.014 60.0152H174.721L173.374 69.106ZM175.798 53.416H182.936L179.367 29.376L175.798 53.416ZM199.328 69.106V22.7768H206.736V61.6987H224.109V69.106H199.328ZM264.032 22.7768H288.812V29.6453H280.126V62.2374H288.812V69.106H264.032V62.2374H272.718V29.6453H264.032V22.7768ZM296.383 69.106V22.7768H307.764C317.258 22.7768 321.231 28.9046 321.231 35.8405V56.1095C321.231 64.3922 315.912 69.106 307.764 69.106H296.383ZM303.252 29.578V62.3721H307.898C313.555 62.3721 314.295 57.793 314.295 55.9075V36.0425C314.295 34.0897 313.555 29.578 307.898 29.578H303.252ZM328.735 69.106V22.7768H353.65V29.78H336.142V42.4397H351.495V49.443H336.142V62.1027H353.65V69.106H328.735ZM361.086 22.7768H368.09L378.864 50.1164V22.7768H385.867V69.106H378.864L368.09 41.7663V69.106H361.086V22.7768ZM393.303 29.982V22.7768H418.354V29.982H409.532V69.106H402.125V29.982H393.303ZM425.79 22.7768H450.57V29.6453H441.884V62.2374H450.57V69.106H425.79V62.2374H434.476V29.6453H425.79V22.7768ZM458.007 29.982V22.7768H483.057V29.982H474.235V69.106H466.828V29.982H458.007ZM489.416 22.7768H496.756L502.883 41.7663L509.011 22.7768H516.351L506.587 52.7426V69.106H499.18V52.7426L489.416 22.7768Z" fill="#2A2A2A"/>
</svg>
