<svg width="921" height="101" viewBox="0 0 921 101" fill="none" xmlns="http://www.w3.org/2000/svg">
<rect x="920.015" width="100.616" height="920.015" rx="1.9758" transform="rotate(90 920.015 0)" fill="#8BB5FF"/>
<path d="M37.0292 72.9189V23.8224H44.4508L50.1597 38.7369L55.8686 23.8224H63.2902V72.9189H55.8686V43.2327L50.1597 58.0044L44.4508 43.2327V72.9189H37.0292ZM84.4438 73.8466C75.595 73.8466 71.3133 67.7809 71.3133 59.3603V37.381C71.3133 28.9604 75.595 22.8947 84.4438 22.8947C93.2926 22.8947 97.5743 28.9604 97.5743 37.381V59.3603C97.5743 67.7809 93.2926 73.8466 84.4438 73.8466ZM90.0813 59.3603V37.381C90.0813 35.3116 90.01 30.2449 84.4438 30.2449C78.8776 30.2449 78.8062 35.3116 78.8062 37.381V59.3603C78.8062 61.4298 78.8776 66.4964 84.4438 66.4964C90.01 66.4964 90.0813 61.4298 90.0813 59.3603ZM105.597 37.381C105.597 28.889 109.879 22.8947 118.728 22.8947C129.361 22.8947 131.858 30.6731 131.858 37.381V39.5219H124.437V37.381C124.437 35.3116 124.365 30.2449 118.728 30.2449C113.09 30.2449 113.019 35.3116 113.019 37.381V59.3603C113.019 61.4298 113.09 66.4964 118.728 66.4964C124.365 66.4964 124.437 61.4298 124.437 59.3603V57.1481H131.858V59.3603C131.858 67.7809 127.577 73.8466 118.728 73.8466C108.166 73.8466 105.597 65.9969 105.597 59.3603V37.381ZM139.739 23.8224H147.018V43.8035L158.293 23.8224H166.713L155.438 43.8035L166.428 72.9189H158.293L150.514 52.2955L147.018 58.504V72.9189H139.739V23.8224ZM187.296 73.8466C178.376 73.8466 174.166 67.9237 174.166 59.3603V23.8224H181.801V59.3603C181.801 61.4298 181.944 66.3537 187.296 66.3537C192.648 66.3537 192.791 61.4298 192.791 59.3603V23.8224H200.426V59.3603C200.426 67.7809 196.216 73.8466 187.296 73.8466ZM216.157 72.9189H208.735V23.8224H221.223C231.571 23.8224 235.852 30.1735 235.852 38.3801C235.852 46.5866 231.571 52.9378 221.223 52.9378H216.157V72.9189ZM216.157 30.9585V45.8017H221.223C227.646 45.8017 228.359 40.4496 228.359 38.3801C228.359 36.3106 227.646 30.9585 221.223 30.9585H216.157ZM242.734 36.8815C242.734 28.7463 246.73 22.8947 255.864 22.8947C266.568 22.8947 268.995 30.3876 268.995 37.381V39.0937H261.787V37.381C261.787 35.0261 261.573 30.1735 255.864 30.1735C250.441 30.1735 250.012 34.5979 250.012 36.2393V36.5247C250.012 40.6637 252.582 42.7331 256.435 44.5172C264.142 48.0852 268.995 50.3688 268.995 59.8598C268.995 67.7809 265.569 73.8466 255.864 73.8466C245.16 73.8466 242.734 66.3537 242.734 59.3603V54.9359H249.941V59.3603C249.941 61.7152 250.155 66.5678 255.864 66.5678C261.288 66.5678 261.716 62.1434 261.716 60.5021V60.2166C261.716 56.6486 260.431 54.5791 255.293 52.2955C247.586 48.8702 242.734 45.7303 242.734 36.8815Z" fill="#2A2A2A"/>
</svg>
